:SAMPLES-PER-SECOND 30
:FULLY-SPECIFIED
:DEGREES
330
root  34.8478933 36.57769932 -14.23605521 9.359251976 -2.459973335 3.177056551
lowerback  -8.469409943 -0.4258229733 -0.7444977164
upperback  -3.934619904 -0.01088200044 -3.504990101
thorax  0.676692009 0.1665659994 -3.202339888
lowerneck  -14.80179977 -4.809100151 -3.654289961
upperneck  16.6345005 -6.866139412 7.185780048
head  7.965791225 -2.663278341 2.224437714
lclavicle  0 -4.497500157e-015 -2.743230041e-014
lhumerus  -49.22570038 31.32670021 61.73519897
lradius  -0.05914972723 -6.507048965e-006 29.8159008
lwrist  3.192251654e-007 -3.790274832e-007 -28.7663002
lhand  -0 -36.74140167 -10.61260033
lfingers  90 7.125020027 -90
lthumb  94.72866131 -25.45513616 100.893747
rclavicle  0 -4.497500157e-015 -2.743230041e-014
rhumerus  -50.49160004 -22.5163002 -49.77840042
rradius  -5.16745672e-007 2.214343908e-008 102.5169983
rwrist  0.0006954420824 -0.004670973402 -179.7070007
rhand  -1.773972787e-031 5.581369877 -7.289599895
rfingers  -90 -7.125020027 -90
rthumb  -84.66738218 -8.818441597 -58.66421958
rfemur  -10.38332653 14.83681679 13.13062096
rtibia  0.07713941485 -0.4740633368 17.96786499
rfoot  1.200201988 -20.86028862 -36.6932373
rtoes  4.023006265 19.60745799 -101.836841
lfemur  -4.237739563 -16.42697525 -21.67657471
ltibia  6.014368057 0.3037880659 8.502448082
lfoot  0.2379466444 -23.1764946 35.27098083
ltoes  -8.521949191 -18.16118268 -115.6754873
331
root  34.84836188 36.578255 -14.23686621 9.374562263 -2.538951874 3.172041655
lowerback  -8.447599411 -0.4280809164 -0.7041982412
upperback  -3.94652009 -0.0191181004 -3.493999958
thorax  0.6518020034 0.1614740044 -3.214339972
lowerneck  -14.76019955 -4.737569809 -3.556900024
upperneck  16.62549973 -6.780819416 7.150420189
head  7.950039864 -2.621200085 2.204250097
lclavicle  0 -4.497500157e-015 -2.743230041e-014
lhumerus  -49.19290161 31.14649963 61.8567009
lradius  -0.05862784013 -6.507048965e-006 29.81500244
lwrist  3.192251654e-007 -3.790274832e-007 -28.45800018
lhand  -4.409350951e-031 -36.79090118 -10.59700012
lfingers  90 7.125020027 -90
lthumb  94.74855233 -25.43812581 100.9453354
rclavicle  0 -4.497500157e-015 -2.743230041e-014
rhumerus  -50.67150116 -22.64599991 -50.32860184
rradius  -5.16745672e-007 2.214343908e-008 101.2529984
rwrist  0.0006954420824 -0.004670973402 -179.0189972
rhand  -1.773667807e-031 5.479629993 -7.469979763
rfingers  -90 -7.125020027 -90
rthumb  -84.78660565 -8.657537158 -58.77780028
rfemur  -10.42948246 14.83138847 13.11797237
rtibia  0.07658211142 -0.4837619364 17.99226379
rfoot  1.203077078 -20.88406372 -36.62362671
rtoes  4.019132651 19.60822237 -101.825298
lfemur  -4.280002594 -16.40098763 -21.65870667
ltibia  5.98632431 0.3064521253 8.542159081
lfoot  0.2465448231 -23.18889999 35.32643509
ltoes  -8.56908534 -18.13957707 -115.8268012
332
root  34.84960241 36.58092829 -14.23776431 9.428572655 -2.611571312 3.092429876
lowerback  -8.374930382 -0.4408050179 -0.7529171705
upperback  -3.947129965 -0.03487629816 -3.504149914
thorax  0.6105179787 0.153669998 -3.198440075
lowerneck  -14.75500011 -4.666240215 -3.45133996
upperneck  16.65239906 -6.696060658 7.099460125
head  7.94754982 -2.577929974 2.180449963
lclavicle  0 -4.497500157e-015 -2.743230041e-014
lhumerus  -49.18270111 31.09869957 61.88079834
lradius  -0.0580304265 -6.507048965e-006 29.83600044
lwrist  3.192251654e-007 -3.790274832e-007 -28.33720016
lhand  -4.406155244e-031 -36.73529816 -10.62880039
lfingers  90 7.125020027 -90
lthumb  94.72919349 -25.47123695 100.8886753
rclavicle  0 -4.497500157e-015 -2.743230041e-014
rhumerus  -50.80860138 -22.8390007 -50.76369858
rradius  -5.16745672e-007 2.214343908e-008 99.8647995
rwrist  0.0006954420824 -0.004670973402 -178.3480072
rhand  -1.773999677e-031 5.590250015 -7.348499775
rfingers  -90 -7.125020027 -90
rthumb  -84.69622623 -8.768715571 -58.66026416
rfemur  -10.42807484 14.80301952 13.14726448
rtibia  0.132833764 -0.5002054572 17.8398056
rfoot  1.276633501 -20.9005127 -36.53752136
rtoes  4.007831029 19.61044811 -101.7916226
lfemur  -4.741376877 -16.31829834 -21.36489105
ltibia  5.619983196 0.3721459508 9.200942993
lfoot  0.2821995318 -23.56882858 35.2830162
ltoes  -8.56872881 -18.13974105 -115.8256561
333
root  34.85071978 36.57978689 -14.23892074 9.412129402 -2.709489584 3.134944916
lowerback  -8.396670341 -0.4281589687 -0.6675265431
upperback  -3.962340117 -0.02545879968 -3.486690044
thorax  0.6069099903 0.1542969942 -3.227839947
lowerneck  -14.73810005 -4.62553978 -3.410759926
upperneck  16.66939926 -6.649330139 7.107379913
head  7.942037106 -2.551249981 2.182499886
lclavicle  0 -4.497500157e-015 -2.743230041e-014
lhumerus  -49.18249893 31.02949905 61.91439819
lradius  -0.05655893683 -6.507048965e-006 29.88220024
lwrist  3.192251654e-007 -3.790274832e-007 -28.30190086
lhand  -4.40590283e-031 -36.73089981 -10.68789959
lfingers  90 7.125020027 -90
lthumb  94.73950072 -25.52942615 100.8892902
rclavicle  0 -4.497500157e-015 -2.743230041e-014
rhumerus  -50.96070099 -23.00090027 -51.19979858
rradius  -5.16745672e-007 2.214343908e-008 98.50460052
rwrist  0.0006954420824 -0.004670973402 -177.8880005
rhand  -1.774297528e-031 5.687670231 -7.568950176
rfingers  -90 -7.125020027 -90
rthumb  -84.7888736 -8.587147255 -58.58279321
rfemur  -10.47653961 14.81283951 13.1044054
rtibia  0.1033619046 -0.5361375809 17.94090271
rfoot  1.245286703 -20.98423004 -36.47057724
rtoes  4.028300588 19.60641202 -101.8526183
lfemur  -4.618114948 -16.32203674 -21.48751259
ltibia  5.715633869 0.3034511507 9.025390625
lfoot  0.2540074885 -23.35658264 35.31227493
ltoes  -8.519483323 -18.16230886 -115.6675763
334
root  34.85171401 36.57826401 -14.23990295 9.38381958 -2.793383598 3.154597998
lowerback  -8.411680222 -0.4265060425 -0.6332136989
upperback  -3.981679916 -0.02655320056 -3.462199926
thorax  0.5950440168 0.1560489982 -3.221930027
lowerneck  -14.71619987 -4.576200008 -3.388489962
upperneck  16.67309952 -6.588210106 7.12541008
head  7.940239906 -2.518699884 2.192600012
lclavicle  0 -4.497500157e-015 -2.743230041e-014
lhumerus  -49.15190125 30.97859955 61.95270157
lradius  -0.05479926243 -6.507048965e-006 29.88439941
lwrist  3.192251654e-007 -3.790274832e-007 -28.34350014
lhand  -4.405151386e-031 -36.71780014 -10.72480011
lfingers  90 7.125020027 -90
lthumb  94.74111642 -25.56621247 100.8786579
rclavicle  0 -4.497500157e-015 -2.743230041e-014
rhumerus  -51.02909851 -23.17460251 -51.59909821
rradius  -5.16745672e-007 2.214343908e-008 97.05989838
rwrist  0.0006954420824 -0.004670973402 -177.3480072
rhand  -1.775042532e-031 5.924220085 -7.610159874
rfingers  -90 -7.125020027 -90
rthumb  -84.75395879 -8.568310363 -58.35563334
rfemur  -10.48600006 14.89214611 13.07638741
rtibia  0.09482901543 -0.5485944748 17.99349403
rfoot  1.217824936 -21.03025627 -36.48025894
rtoes  4.045141677 19.60307522 -101.9028109
lfemur  -4.41023016 -16.25198555 -21.61230278
ltibia  5.863001347 0.2850655019 8.747144699
lfoot  0.2460885048 -23.22062302 35.35892105
ltoes  -8.50423118 -18.16926565 -115.6186548
